<?xml version="1.0" encoding="utf-8"?>
<!-- Generator: Adobe Illustrator 16.0.0, SVG Export Plug-In . SVG Version: 6.00 Build 0)  -->
<!DOCTYPE svg PUBLIC "-//W3C//DTD SVG 1.1//EN" "http://www.w3.org/Graphics/SVG/1.1/DTD/svg11.dtd">
<svg version="1.1" id="Layer_1" xmlns="http://www.w3.org/2000/svg" xmlns:xlink="http://www.w3.org/1999/xlink" x="0px" y="0px"
	 width="100px" height="100px" viewBox="0 0 100 100" enable-background="new 0 0 100 100" xml:space="preserve">
<g id="IMG">
	<g>
		<path d="M85.372,49.666C85.234,49.514,71.475,34.5,50,34.5c-21.475,0-35.235,15.014-35.372,15.166L14.327,50l0.301,0.334
			C14.765,50.486,28.525,65.5,50,65.5c21.475,0,35.234-15.014,35.372-15.166L85.673,50L85.372,49.666z M50,64.5
			c-19.232,0-32.151-12.298-34.31-14.5C17.847,47.797,30.753,35.5,50,35.5c19.232,0,32.15,12.298,34.311,14.5
			C82.152,52.203,69.247,64.5,50,64.5z"/>
		<path d="M50,37c-7.168,0-13,5.832-13,13s5.832,13,13,13s13-5.832,13-13S57.168,37,50,37z M50,62c-6.617,0-12-5.383-12-12
			s5.383-12,12-12s12,5.383,12,12S56.617,62,50,62z"/>
		<path d="M50,45c-0.447,0-0.873,0.078-1.286,0.188C49.195,45.644,49.5,46.285,49.5,47c0,1.38-1.12,2.5-2.5,2.5
			c-0.715,0-1.356-0.305-1.812-0.786C45.078,49.126,45,49.552,45,50c0,2.762,2.238,5,5,5c2.762,0,5-2.238,5-5
			C55,47.238,52.762,45,50,45z"/>
	</g>
</g>
<g id="GUIDES">
</g>
</svg>
